<?xml version="1.0" encoding="UTF-8" standalone="no"?>
<svg
   xmlns:dc="http://purl.org/dc/elements/1.1/"
   xmlns:cc="http://creativecommons.org/ns#"
   xmlns:rdf="http://www.w3.org/1999/02/22-rdf-syntax-ns#"
   xmlns:svg="http://www.w3.org/2000/svg"
   xmlns="http://www.w3.org/2000/svg"
   xmlns:sodipodi="http://sodipodi.sourceforge.net/DTD/sodipodi-0.dtd"
   xmlns:inkscape="http://www.inkscape.org/namespaces/inkscape"
   version="1.0"
   width="689.000000pt"
   height="432.000000pt"
   viewBox="0 0 689.000000 432.000000"
   preserveAspectRatio="xMidYMid meet"
   id="svg2"
   inkscape:version="0.48.4 r9939"
   sodipodi:docname="Claro Sports logo.svg">
  <title
     id="title2995">Claro Sports logo</title>
  <defs
     id="defs38" />
  <sodipodi:namedview
     pagecolor="#ffffff"
     bordercolor="#666666"
     borderopacity="1"
     objecttolerance="10"
     gridtolerance="10"
     guidetolerance="10"
     inkscape:pageopacity="0"
     inkscape:pageshadow="2"
     inkscape:window-width="1600"
     inkscape:window-height="844"
     id="namedview36"
     showgrid="false"
     inkscape:zoom="0.99674932"
     inkscape:cx="413.06793"
     inkscape:cy="270"
     inkscape:window-x="-4"
     inkscape:window-y="-4"
     inkscape:window-maximized="1"
     inkscape:current-layer="svg2" />
  <metadata
     id="metadata4">
Created by potrace 1.11, written by Peter Selinger 2001-2013
<rdf:RDF>
  <cc:Work
     rdf:about="">
    <dc:format>image/svg+xml</dc:format>
    <dc:type
       rdf:resource="http://purl.org/dc/dcmitype/StillImage" />
    <dc:title>Claro Sports logo</dc:title>
  </cc:Work>
</rdf:RDF>
</metadata>
  <g
     transform="matrix(0.1,0,0,-0.1,-4.0058142,432)"
     id="g6"
     style="fill:#000000;stroke:none">
    <path
       d="m 4930,3765 0,-405 150,0 150,0 0,405 0,405 -150,0 -150,0 0,-405 z"
       id="path10"
       inkscape:connector-curvature="0"
       style="fill:#ff0000" />
    <path
       d="m 5882,3657 c -199,-199 -362,-369 -362,-377 0,-17 189,-210 205,-210 20,0 737,727 734,743 -5,20 -187,207 -202,207 -7,0 -175,-163 -375,-363 z"
       id="path12"
       inkscape:connector-curvature="0"
       style="fill:#ff0000" />
    <path
       d="M 915,3446 C 768,3418 645,3352 530,3240 386,3101 309,2946 288,2754 c -22,-193 20,-390 112,-527 67,-100 208,-233 296,-279 128,-67 199,-83 369,-83 172,1 233,13 360,75 96,47 186,118 255,203 58,70 138,223 147,280 l 6,37 -171,0 -171,0 -34,-52 c -133,-208 -375,-273 -590,-161 -90,48 -153,111 -199,198 -58,113 -72,218 -43,330 58,222 284,380 497,347 74,-11 169,-52 234,-100 23,-16 62,-62 88,-101 l 48,-71 169,0 169,0 0,23 c 0,44 -42,148 -89,220 -71,108 -212,237 -314,286 -45,23 -109,48 -142,57 -83,21 -282,27 -370,10 z"
       id="path14"
       inkscape:connector-curvature="0"
       style="fill:#ff0000" />
    <path
       d="m 1960,2655 0,-805 165,0 165,0 0,805 0,805 -165,0 -165,0 0,-805 z"
       id="path16"
       inkscape:connector-curvature="0"
       style="fill:#ff0000" />
    <path
       d="m 2802,3135 c -35,-8 -87,-25 -117,-39 -66,-30 -149,-111 -175,-169 -25,-57 -50,-153 -50,-194 l 0,-33 164,0 164,0 7,28 c 9,43 42,90 77,112 42,26 159,28 218,4 69,-28 92,-105 45,-148 -21,-19 -54,-28 -193,-50 -263,-43 -370,-88 -442,-188 -45,-62 -60,-125 -59,-252 1,-128 10,-160 64,-226 80,-96 147,-123 305,-122 118,1 234,26 306,66 23,13 45,21 48,18 3,-3 6,-25 6,-49 l 0,-43 165,0 165,0 0,503 c 0,593 2,579 -89,668 -62,61 -122,89 -241,115 -82,17 -285,17 -368,-1 z m 355,-777 c -10,-142 -67,-218 -190,-249 -83,-21 -152,2 -182,62 -33,64 -14,148 42,184 29,19 312,94 327,86 5,-2 6,-39 3,-83 z"
       id="path18"
       inkscape:connector-curvature="0"
       style="fill:#ff0000" />
    <path
       d="m 4930,3140 c -130,-21 -245,-85 -351,-196 -76,-80 -111,-136 -147,-237 -22,-64 -25,-88 -26,-212 0,-128 2,-147 27,-220 68,-194 266,-374 458,-415 87,-19 288,-8 368,20 128,46 272,165 342,285 16,28 41,86 55,130 22,68 26,98 27,200 0,218 -51,337 -210,488 -79,74 -127,104 -218,133 -89,28 -232,39 -325,24 z m 247,-361 c 71,-34 116,-81 151,-159 54,-116 27,-253 -69,-349 -64,-64 -120,-86 -214,-86 -72,0 -86,4 -144,35 -42,22 -75,50 -97,80 -104,140 -96,297 20,418 96,102 222,123 353,61 z"
       id="path20"
       inkscape:connector-curvature="0"
       style="fill:#ff0000" />
    <path
       d="m 4235,3121 c -80,-23 -138,-54 -189,-102 -24,-21 -46,-36 -49,-32 -4,3 -7,28 -7,55 l 0,48 -155,0 -155,0 0,-620 0,-620 160,0 160,0 0,288 c 0,341 9,441 43,508 54,106 153,164 280,164 l 77,0 0,165 0,165 -52,-1 c -29,0 -80,-8 -113,-18 z"
       id="path22"
       inkscape:connector-curvature="0"
       style="fill:#ff0000" />
    <path
       d="m 5840,2650 0,-150 415,0 415,0 0,150 0,150 -415,0 -415,0 0,-150 z"
       id="path24"
       inkscape:connector-curvature="0"
       style="fill:#ff0000" />
    <path
       d="m 5488,1443 -3,-128 -42,-3 c -30,-2 -43,-8 -43,-18 0,-11 -12,-7 -43,16 -76,54 -230,59 -326,10 l -43,-21 -5,20 c -5,20 -13,21 -124,21 l -119,0 0,-450 0,-450 120,0 120,0 0,283 c 0,255 2,286 19,324 35,76 97,98 167,59 26,-14 52,-26 59,-26 7,0 46,34 85,75 40,41 77,72 81,69 5,-3 9,-27 9,-55 0,-49 0,-49 33,-49 18,0 38,-5 45,-12 9,-9 12,-79 12,-252 0,-269 5,-290 71,-353 55,-51 95,-63 219,-63 l 110,0 0,105 0,105 -55,0 c -99,0 -108,25 -103,295 l 3,170 78,3 77,3 0,94 0,95 -68,0 c -40,0 -73,5 -80,12 -8,8 -12,52 -12,130 l 0,118 -120,0 -119,0 -3,-127 z"
       id="path26"
       inkscape:connector-curvature="0" />
    <path
       d="m 3335,1351 c -27,-3 -70,-16 -94,-28 -42,-21 -43,-21 -48,-2 -5,17 -15,19 -124,19 l -119,0 0,-610 0,-610 120,0 120,0 0,180 c 0,165 5,202 25,170 26,-42 208,-57 304,-25 71,23 132,83 162,160 23,57 24,71 24,290 0,217 -2,233 -23,287 -51,127 -180,190 -347,169 z m 44,-237 c 61,-24 82,-82 82,-231 0,-101 -3,-122 -23,-162 -19,-37 -31,-49 -64,-60 -37,-13 -46,-13 -87,3 -39,15 -48,24 -67,69 -19,43 -23,70 -23,162 0,134 21,196 75,220 43,18 59,18 107,-1 z"
       id="path28"
       inkscape:connector-curvature="0" />
    <path
       d="m 4125,1349 c -125,-18 -231,-102 -276,-217 -19,-48 -23,-82 -27,-211 -7,-236 14,-308 117,-404 61,-57 97,-74 188,-87 233,-33 413,81 453,287 18,90 8,353 -15,418 -27,75 -132,176 -205,197 -72,22 -161,28 -235,17 z m 133,-239 c 65,-29 83,-79 83,-225 0,-125 -12,-168 -55,-203 -42,-32 -79,-36 -131,-13 -68,30 -86,77 -86,224 0,147 17,193 86,223 40,18 53,17 103,-6 z"
       id="path30"
       inkscape:connector-curvature="0" />
    <path
       d="m 2291,1330 c -88,-32 -155,-94 -180,-169 -15,-47 -14,-185 2,-224 21,-49 89,-104 149,-121 29,-8 99,-19 155,-25 111,-12 150,-24 158,-53 18,-56 -37,-93 -141,-92 -62,0 -82,5 -147,37 -41,20 -79,37 -84,37 -13,0 -153,-144 -153,-158 0,-24 101,-92 168,-112 96,-30 299,-31 393,-1 141,45 209,133 209,272 0,115 -7,136 -64,195 -59,61 -108,79 -238,89 -110,9 -155,21 -169,46 -16,31 -3,65 31,79 44,18 156,9 211,-18 25,-12 52,-22 60,-22 8,0 46,32 84,70 78,79 79,84 9,132 -59,41 -140,58 -279,58 -93,-1 -132,-5 -174,-20 z"
       id="path32"
       inkscape:connector-curvature="0" />
    <path
       d="m 6181,1330 c -88,-32 -155,-94 -180,-169 -15,-47 -14,-185 2,-224 21,-49 89,-104 149,-121 29,-8 99,-19 155,-25 111,-12 150,-24 158,-53 18,-56 -37,-93 -141,-92 -62,0 -82,5 -147,37 -41,20 -79,37 -84,37 -13,0 -153,-144 -153,-158 0,-24 101,-92 168,-112 96,-30 299,-31 393,-1 141,45 209,133 209,272 0,115 -7,136 -64,195 -59,61 -108,79 -238,89 -110,9 -155,21 -169,46 -16,31 -3,65 31,79 44,18 156,9 211,-18 25,-12 52,-22 60,-22 8,0 46,32 84,70 78,79 79,84 9,132 -59,41 -140,58 -279,58 -93,-1 -132,-5 -174,-20 z"
       id="path34"
       inkscape:connector-curvature="0" />
  </g>
</svg>
