<?xml version="1.0" encoding="UTF-8"?>
<svg id="Capa_1" data-name="Capa 1" xmlns="http://www.w3.org/2000/svg" viewBox="0 0 500 129">
  <defs>
    <style>
      .cls-1 {
        fill: #de3346;
        stroke-width: 0px;
      }
    </style>
  </defs>
  <g>
    <polygon class="cls-1" points="0 79.26 26.22 100.29 35.83 67.87 30.59 63.49 36.71 48.6 11.29 48.6 0 79.26"/>
    <polygon class="cls-1" points="107.52 1.29 76.03 1.29 85.65 32.83 95.02 32.83 98.8 48.6 117.99 32.83 107.52 1.29"/>
    <polygon class="cls-1" points="96.14 67.87 100.51 75.76 85.65 84.52 107.5 99.42 133.72 79.26 121.48 47.72 96.14 67.87"/>
    <polygon class="cls-1" points="67.3 129 92.64 108.18 68.09 89.78 61.18 96.79 46.32 82.77 37.58 107.3 67.3 129"/>
    <polygon class="cls-1" points="98.8 48.6 74.79 48.6 67.27 22.31 67.3 22.31 67.08 21.67 67.08 21.67 67.08 21.67 60.36 1.29 27.09 1.29 16.61 31.08 48.31 31.08 50.69 22.31 66.89 22.31 59.17 48.6 36.71 48.6 55.06 60.86 46.32 82.77 67.3 70.99 85.65 84.52 78.66 62.62 98.8 48.6"/>
  </g>
  <polygon class="cls-1" points="185.28 1.29 166.05 1.29 166.05 84.52 166.05 102.92 185.28 102.92 200.14 102.92 200.14 84.52 185.28 84.52 185.28 1.29"/>
  <polygon class="cls-1" points="200.14 1.29 200.14 19.69 214.99 19.69 214.99 102.92 234.22 102.92 234.22 19.69 234.22 1.29 214.99 1.29 200.14 1.29"/>
  <polygon class="cls-1" points="500 0 481.03 0 463.67 33.29 446.3 0 427.33 0 454.18 51.46 427.33 102.92 446.3 102.92 463.67 69.64 481.03 102.92 500 102.92 473.15 51.46 500 0"/>
  <polygon class="cls-1" points="331.08 0 321.6 0 305.76 51.5 289.91 0 280.43 0 270.95 0 261.46 0 261.46 102.92 280.43 102.92 280.43 30.83 296.27 82.32 315.24 82.32 331.08 30.83 331.08 102.92 350.05 102.92 350.05 0 340.57 0 331.08 0"/>
  <path class="cls-1" d="M394.6,0h-18.97l-18.97,102.92h18.97l4.18-22.69h24.37l4.18,22.69h18.97L408.36,0h-13.76ZM382.29,66.81l9.71-52.69,9.71,52.69h-19.42Z"/>
</svg>